<svg xmlns="http://www.w3.org/2000/svg" viewBox="0 0 1320 2868" role="img" aria-labelledby="title desc">
<title id="title">Gasometria como filme</title>
<desc id="desc">Uma gaso e foto; serie temporal mostra quem esta vencendo.</desc>
<defs>
<marker id="arrow-37c6e0" markerWidth="12" markerHeight="12" refX="10" refY="6" orient="auto" markerUnits="strokeWidth"><path d="M2,2 L10,6 L2,10 Z" fill="#37c6e0"/></marker><marker id="arrow-46d7b4" markerWidth="12" markerHeight="12" refX="10" refY="6" orient="auto" markerUnits="strokeWidth"><path d="M2,2 L10,6 L2,10 Z" fill="#46d7b4"/></marker><marker id="arrow-55d88f" markerWidth="12" markerHeight="12" refX="10" refY="6" orient="auto" markerUnits="strokeWidth"><path d="M2,2 L10,6 L2,10 Z" fill="#55d88f"/></marker><marker id="arrow-f2b441" markerWidth="12" markerHeight="12" refX="10" refY="6" orient="auto" markerUnits="strokeWidth"><path d="M2,2 L10,6 L2,10 Z" fill="#f2b441"/></marker><marker id="arrow-ef8f4c" markerWidth="12" markerHeight="12" refX="10" refY="6" orient="auto" markerUnits="strokeWidth"><path d="M2,2 L10,6 L2,10 Z" fill="#ef8f4c"/></marker><marker id="arrow-ff6464" markerWidth="12" markerHeight="12" refX="10" refY="6" orient="auto" markerUnits="strokeWidth"><path d="M2,2 L10,6 L2,10 Z" fill="#ff6464"/></marker><marker id="arrow-b18cf0" markerWidth="12" markerHeight="12" refX="10" refY="6" orient="auto" markerUnits="strokeWidth"><path d="M2,2 L10,6 L2,10 Z" fill="#b18cf0"/></marker>
<pattern id="grid" width="42" height="42" patternUnits="userSpaceOnUse">
  <path d="M42 0H0V42" fill="none" stroke="#314557" stroke-width="1" opacity=".34"/>
</pattern>
<linearGradient id="warm" x1="0" x2="1">
  <stop offset="0" stop-color="#ef8f4c"/>
  <stop offset="1" stop-color="#ff6464"/>
</linearGradient>
<linearGradient id="cool" x1="0" x2="1">
  <stop offset="0" stop-color="#37c6e0"/>
  <stop offset="1" stop-color="#46d7b4"/>
</linearGradient>
</defs>
<rect width="1320" height="2868" fill="#101820"/>
<circle cx="1160" cy="40" r="310" fill="#37c6e0" opacity=".08"/>
<circle cx="120" cy="2770" r="380" fill="#ef8f4c" opacity=".06"/>
<rect x="48" y="46" width="1224" height="2776" rx="42" fill="none" stroke="#314557" stroke-width="2"/>
<text x="88" y="126" font-family="JetBrains Mono, SFMono-Regular, Menlo, monospace" font-size="24" font-weight="900" fill="#37c6e0" letter-spacing="5">CAD 360 · M10</text>
<text x="88" y="204" font-family="Avenir Next, Inter, Arial, sans-serif" font-size="58" font-weight="900" fill="#ffffff">Gasometria como filme</text>
<text x="90" y="258" font-family="Avenir Next, Inter, Arial, sans-serif" font-size="28" font-weight="500" fill="#aebdcc">Uma gaso e foto; serie temporal mostra quem esta vencendo.</text>
<line x1="88" y1="306" x2="1232" y2="306" stroke="#314557" stroke-width="2"/>
<rect x="88" y="370" width="1144" height="660" rx="26" fill="#172330" stroke="#314557" stroke-width="2" opacity="1"/>
<rect x="116" y="396" width="58" height="58" rx="16" fill="#1d2b3a" stroke="#37c6e0" stroke-width="2" opacity="1"/>
<text x="145" y="436" text-anchor="middle" font-family="JetBrains Mono, SFMono-Regular, Menlo, Consolas, monospace" font-size="24" font-weight="900" fill="#37c6e0" opacity="1">1</text>
<text x="192" y="436" text-anchor="start" font-family="Inter, Avenir Next, Arial, sans-serif" font-size="28" font-weight="850" fill="#ffffff" opacity="1">As 8 camadas da leitura</text>
<rect x="145" y="510" width="350" height="62" rx="31.0" fill="#1d2b3a" stroke="#314557" stroke-width="1.5"/>
<text x="320.0" y="549.64" text-anchor="middle" font-family="Inter, Avenir Next, Arial, sans-serif" font-size="24" font-weight="850" fill="#edf5fb" opacity="1">1. pH</text>
<rect x="665" y="510" width="350" height="62" rx="31.0" fill="#1d2b3a" stroke="#314557" stroke-width="1.5"/>
<text x="840.0" y="549.64" text-anchor="middle" font-family="Inter, Avenir Next, Arial, sans-serif" font-size="24" font-weight="850" fill="#edf5fb" opacity="1">2. pCO2/Winter</text>
<rect x="145" y="615" width="350" height="62" rx="31.0" fill="#1d2b3a" stroke="#314557" stroke-width="1.5"/>
<text x="320.0" y="654.64" text-anchor="middle" font-family="Inter, Avenir Next, Arial, sans-serif" font-size="24" font-weight="850" fill="#edf5fb" opacity="1">3. HCO3/BE</text>
<rect x="665" y="615" width="350" height="62" rx="31.0" fill="#1d2b3a" stroke="#314557" stroke-width="1.5"/>
<text x="840.0" y="654.64" text-anchor="middle" font-family="Inter, Avenir Next, Arial, sans-serif" font-size="24" font-weight="850" fill="#edf5fb" opacity="1">4. lactato</text>
<rect x="145" y="720" width="350" height="62" rx="31.0" fill="#1d2b3a" stroke="#314557" stroke-width="1.5"/>
<text x="320.0" y="759.64" text-anchor="middle" font-family="Inter, Avenir Next, Arial, sans-serif" font-size="24" font-weight="850" fill="#edf5fb" opacity="1">5. Na/K/Cl</text>
<rect x="665" y="720" width="350" height="62" rx="31.0" fill="#1d2b3a" stroke="#314557" stroke-width="1.5"/>
<text x="840.0" y="759.64" text-anchor="middle" font-family="Inter, Avenir Next, Arial, sans-serif" font-size="24" font-weight="850" fill="#edf5fb" opacity="1">6. AGc</text>
<rect x="145" y="825" width="350" height="62" rx="31.0" fill="#1d2b3a" stroke="#314557" stroke-width="1.5"/>
<text x="320.0" y="864.64" text-anchor="middle" font-family="Inter, Avenir Next, Arial, sans-serif" font-size="24" font-weight="850" fill="#edf5fb" opacity="1">7. Δ/Δ</text>
<rect x="665" y="825" width="350" height="62" rx="31.0" fill="#1d2b3a" stroke="#314557" stroke-width="1.5"/>
<text x="840.0" y="864.64" text-anchor="middle" font-family="Inter, Avenir Next, Arial, sans-serif" font-size="24" font-weight="850" fill="#edf5fb" opacity="1">8. osm efetiva</text>
<rect x="88" y="1110" width="1144" height="720" rx="26" fill="#172330" stroke="#314557" stroke-width="2" opacity="1"/>
<rect x="116" y="1136" width="58" height="58" rx="16" fill="#1d2b3a" stroke="#b18cf0" stroke-width="2" opacity="1"/>
<text x="145" y="1176" text-anchor="middle" font-family="JetBrains Mono, SFMono-Regular, Menlo, Consolas, monospace" font-size="24" font-weight="900" fill="#b18cf0" opacity="1">2</text>
<text x="192" y="1176" text-anchor="start" font-family="Inter, Avenir Next, Arial, sans-serif" font-size="28" font-weight="850" fill="#ffffff" opacity="1">Filme: a doença troca de mãos</text>
<rect x="145" y="1245" width="440" height="260" rx="18" fill="#0d141b" stroke="#314557" stroke-width="2" opacity="1"/>
<rect x="169" y="1269" width="392" height="202" fill="url(#grid)" opacity=".55"/>
<path d="M187.0,1297.8 L298.0,1331.9 L409.0,1377.4 L557.0,1411.5" fill="none" stroke="#55d88f" stroke-width="7" stroke-linecap="round" stroke-linejoin="round"/>
<circle cx="187" cy="1297.75" r="8" fill="#55d88f" stroke="#101820" stroke-width="3"/>
<circle cx="298.0" cy="1331.875" r="8" fill="#55d88f" stroke="#101820" stroke-width="3"/>
<circle cx="409.0" cy="1377.375" r="8" fill="#55d88f" stroke="#101820" stroke-width="3"/>
<circle cx="557" cy="1411.5" r="8" fill="#55d88f" stroke="#101820" stroke-width="3"/>
<text x="173" y="1279" text-anchor="start" font-family="JetBrains Mono, SFMono-Regular, Menlo, Consolas, monospace" font-size="22" font-weight="900" fill="#55d88f" opacity="1">AGc ↓</text>
<rect x="720" y="1245" width="440" height="260" rx="18" fill="#0d141b" stroke="#314557" stroke-width="2" opacity="1"/>
<rect x="744" y="1269" width="392" height="202" fill="url(#grid)" opacity=".55"/>
<path d="M762.0,1422.9 L873.0,1388.8 L984.0,1343.2 L1132.0,1297.8" fill="none" stroke="#ef8f4c" stroke-width="7" stroke-linecap="round" stroke-linejoin="round"/>
<circle cx="762" cy="1422.875" r="8" fill="#ef8f4c" stroke="#101820" stroke-width="3"/>
<circle cx="873.0" cy="1388.75" r="8" fill="#ef8f4c" stroke="#101820" stroke-width="3"/>
<circle cx="984.0" cy="1343.25" r="8" fill="#ef8f4c" stroke="#101820" stroke-width="3"/>
<circle cx="1132" cy="1297.75" r="8" fill="#ef8f4c" stroke="#101820" stroke-width="3"/>
<text x="748" y="1279" text-anchor="start" font-family="JetBrains Mono, SFMono-Regular, Menlo, Consolas, monospace" font-size="22" font-weight="900" fill="#ef8f4c" opacity="1">Cl ↑</text>
<text x="150" y="1635" text-anchor="start" font-family="Inter, Avenir Next, Arial, sans-serif" font-size="30" font-weight="740" fill="#edf5fb" opacity="1">Quando AGc cai e Cl sobe, o pH que não fecha pode ter deixado de ser</text>
<text x="150" y="1673.4" text-anchor="start" font-family="Inter, Avenir Next, Arial, sans-serif" font-size="30" font-weight="740" fill="#edf5fb" opacity="1">cetose e virado cloro.</text>
<rect x="88" y="1905" width="1144" height="430" rx="26" fill="#172330" stroke="#314557" stroke-width="2" opacity="1"/>
<rect x="116" y="1931" width="58" height="58" rx="16" fill="#1d2b3a" stroke="#55d88f" stroke-width="2" opacity="1"/>
<text x="145" y="1971" text-anchor="middle" font-family="JetBrains Mono, SFMono-Regular, Menlo, Consolas, monospace" font-size="24" font-weight="900" fill="#55d88f" opacity="1">3</text>
<text x="192" y="1971" text-anchor="start" font-family="Inter, Avenir Next, Arial, sans-serif" font-size="28" font-weight="850" fill="#ffffff" opacity="1">Handoff de uma linha</text>
<text x="150" y="2045" text-anchor="start" font-family="Inter, Avenir Next, Arial, sans-serif" font-size="32" font-weight="780" fill="#edf5fb" opacity="1">Gap caiu, Cl subiu, Δ/Δ &lt; 1: não empilhar insulina para perseguir pH;</text>
<text x="150" y="2085.96" text-anchor="start" font-family="Inter, Avenir Next, Arial, sans-serif" font-size="32" font-weight="780" fill="#edf5fb" opacity="1">manter cetose monitorada, K protegido e fluido balanceado.</text>
</svg>
